<?xml version="1.0" encoding="UTF-8"?>
<svg width="700pt" height="700pt" version="1.1" viewBox="0 0 700 700" xmlns="http://www.w3.org/2000/svg" xmlns:xlink="http://www.w3.org/1999/xlink">
 <defs>
  <symbol id="w" overflow="visible">
   <path d="m13.891-0.82812c-0.71875 0.375-1.4688 0.65625-2.25 0.84375-0.77344 0.1875-1.5781 0.28125-2.4219 0.28125-2.5117 0-4.5078-0.70312-5.9844-2.1094-1.4688-1.4062-2.2031-3.3164-2.2031-5.7344 0-2.4141 0.73438-4.3281 2.2031-5.7344 1.4766-1.4062 3.4727-2.1094 5.9844-2.1094 0.84375 0 1.6484 0.09375 2.4219 0.28125 0.78125 0.1875 1.5312 0.46875 2.25 0.84375v3.125c-0.71875-0.48828-1.4336-0.84766-2.1406-1.0781-0.69922-0.22656-1.4375-0.34375-2.2188-0.34375-1.3867 0-2.4805 0.44922-3.2812 1.3438-0.79297 0.88672-1.1875 2.1094-1.1875 3.6719s0.39453 2.793 1.1875 3.6875c0.80078 0.88672 1.8945 1.3281 3.2812 1.3281 0.78125 0 1.5195-0.11328 2.2188-0.34375 0.70703-0.22656 1.4219-0.58594 2.1406-1.0781z"/>
  </symbol>
  <symbol id="d" overflow="visible">
   <path d="m10.172-8.25c-0.32422-0.14453-0.64062-0.25391-0.95312-0.32812-0.3125-0.070313-0.63281-0.10938-0.95312-0.10938-0.92969 0-1.6484 0.30469-2.1562 0.90625-0.5 0.59375-0.75 1.4492-0.75 2.5625v5.2188h-3.625v-11.344h3.625v1.875c0.46875-0.75 1.0039-1.2891 1.6094-1.625 0.60156-0.34375 1.3281-0.51562 2.1719-0.51562 0.125 0 0.25391 0.007813 0.39062 0.015625 0.14453 0.011719 0.35156 0.03125 0.625 0.0625z"/>
  </symbol>
  <symbol id="b" overflow="visible">
   <path d="m13.062-5.7031v1.0312h-8.4688c0.082031 0.85547 0.38281 1.4961 0.90625 1.9219 0.53125 0.42969 1.2695 0.64062 2.2188 0.64062 0.75781 0 1.5391-0.11328 2.3438-0.34375 0.80078-0.22656 1.625-0.57031 2.4688-1.0312v2.7969c-0.86719 0.32422-1.7266 0.57031-2.5781 0.73438-0.85547 0.16406-1.7148 0.25-2.5781 0.25-2.0547 0-3.6484-0.51953-4.7812-1.5625-1.1367-1.0391-1.7031-2.5039-1.7031-4.3906 0-1.8516 0.55469-3.3047 1.6719-4.3594 1.1133-1.0625 2.6484-1.5938 4.6094-1.5938 1.7812 0 3.207 0.53906 4.2812 1.6094 1.0703 1.0742 1.6094 2.5078 1.6094 4.2969zm-3.7344-1.2031c0-0.6875-0.20312-1.2383-0.60938-1.6562-0.39844-0.42578-0.91797-0.64062-1.5625-0.64062-0.69922 0-1.2734 0.19922-1.7188 0.59375-0.4375 0.39844-0.71094 0.96484-0.8125 1.7031z"/>
  </symbol>
  <symbol id="f" overflow="visible">
   <path d="m6.8281-5.1094c-0.76172 0-1.3359 0.13281-1.7188 0.39062-0.375 0.26172-0.5625 0.64062-0.5625 1.1406 0 0.46094 0.14844 0.82031 0.45312 1.0781 0.3125 0.26172 0.73828 0.39062 1.2812 0.39062 0.6875 0 1.2578-0.24219 1.7188-0.73438 0.46875-0.48828 0.70312-1.1016 0.70312-1.8438v-0.42188zm5.5312-1.3594v6.4688h-3.6562v-1.6875c-0.48047 0.69922-1.0273 1.2031-1.6406 1.5156-0.60547 0.3125-1.3438 0.46875-2.2188 0.46875-1.168 0-2.1211-0.34375-2.8594-1.0312-0.73047-0.6875-1.0938-1.5781-1.0938-2.6719 0-1.3203 0.45703-2.2969 1.375-2.9219 0.91406-0.625 2.3516-0.9375 4.3125-0.9375h2.125v-0.28125c0-0.57031-0.23047-0.98828-0.6875-1.25-0.44922-0.26953-1.1523-0.40625-2.1094-0.40625-0.77344 0-1.4922 0.078125-2.1562 0.23438-0.66797 0.15625-1.2891 0.39062-1.8594 0.70312v-2.7656c0.76953-0.1875 1.5469-0.32812 2.3281-0.42188 0.78125-0.10156 1.5664-0.15625 2.3594-0.15625 2.0391 0 3.5156 0.40625 4.4219 1.2188 0.90625 0.80469 1.3594 2.1094 1.3594 3.9219z"/>
  </symbol>
  <symbol id="a" overflow="visible">
   <path d="m5.7031-14.562v3.2188h3.7344v2.5938h-3.7344v4.8125c0 0.52344 0.10156 0.875 0.3125 1.0625 0.20703 0.1875 0.625 0.28125 1.25 0.28125h1.8594v2.5938h-3.1094c-1.4297 0-2.4453-0.29688-3.0469-0.89062-0.59375-0.60156-0.89062-1.6172-0.89062-3.0469v-4.8125h-1.8125v-2.5938h1.8125v-3.2188z"/>
  </symbol>
  <symbol id="n" overflow="visible">
   <path d="m9.4531-9.6719v-6.0781h3.6406v15.75h-3.6406v-1.6406c-0.5 0.66797-1.0547 1.1562-1.6562 1.4688-0.59375 0.3125-1.2891 0.46875-2.0781 0.46875-1.3984 0-2.543-0.55078-3.4375-1.6562-0.89844-1.1133-1.3438-2.5469-1.3438-4.2969s0.44531-3.1758 1.3438-4.2812c0.89453-1.1133 2.0391-1.6719 3.4375-1.6719 0.78125 0 1.4727 0.15625 2.0781 0.46875 0.60156 0.3125 1.1562 0.80469 1.6562 1.4688zm-2.3906 7.3281c0.78125 0 1.375-0.28125 1.7812-0.84375 0.40625-0.57031 0.60938-1.3945 0.60938-2.4688 0-1.082-0.20312-1.9062-0.60938-2.4688-0.40625-0.57031-1-0.85938-1.7812-0.85938-0.77344 0-1.3594 0.28906-1.7656 0.85938-0.40625 0.5625-0.60938 1.3867-0.60938 2.4688 0 1.0742 0.20312 1.8984 0.60938 2.4688 0.40625 0.5625 0.99219 0.84375 1.7656 0.84375z"/>
  </symbol>
  <symbol id="m" overflow="visible">
   <path d="m7.7812-2.3438c0.76953 0 1.3594-0.28125 1.7656-0.84375 0.41406-0.57031 0.625-1.3945 0.625-2.4688 0-1.082-0.21094-1.9062-0.625-2.4688-0.40625-0.57031-0.99609-0.85938-1.7656-0.85938-0.78125 0-1.3828 0.28906-1.7969 0.85938-0.41797 0.57422-0.625 1.3984-0.625 2.4688 0 1.0742 0.20703 1.8984 0.625 2.4688 0.41406 0.5625 1.0156 0.84375 1.7969 0.84375zm-2.4219-7.3281c0.5-0.66406 1.0508-1.1562 1.6562-1.4688 0.61328-0.3125 1.3164-0.46875 2.1094-0.46875 1.3945 0 2.5391 0.55859 3.4375 1.6719 0.89453 1.1055 1.3438 2.5312 1.3438 4.2812s-0.44922 3.1836-1.3438 4.2969c-0.89844 1.1055-2.043 1.6562-3.4375 1.6562-0.79297 0-1.4961-0.15625-2.1094-0.46875-0.60547-0.3125-1.1562-0.80078-1.6562-1.4688v1.6406h-3.625v-15.75h3.625z"/>
  </symbol>
  <symbol id="l" overflow="visible">
   <path d="m0.25-11.344h3.625l3.0469 7.7031 2.5938-7.7031h3.625l-4.7656 12.422c-0.48047 1.2578-1.043 2.1406-1.6875 2.6406-0.63672 0.5-1.4766 0.75-2.5156 0.75h-2.0938v-2.375h1.125c0.61328 0 1.0625-0.10156 1.3438-0.29688 0.28125-0.1875 0.5-0.53906 0.65625-1.0469l0.10938-0.3125z"/>
  </symbol>
  <symbol id="e" overflow="visible">
   <path d="m12.422-14.641v3.2031c-0.83594-0.375-1.6484-0.65625-2.4375-0.84375-0.78125-0.1875-1.5273-0.28125-2.2344-0.28125-0.92969 0-1.6172 0.13281-2.0625 0.39062-0.44922 0.25-0.67188 0.64844-0.67188 1.1875 0 0.40625 0.14844 0.72656 0.45312 0.95312 0.30078 0.21875 0.84766 0.41406 1.6406 0.57812l1.6562 0.32812c1.6758 0.34375 2.8672 0.85938 3.5781 1.5469 0.71875 0.6875 1.0781 1.668 1.0781 2.9375 0 1.668-0.49609 2.9062-1.4844 3.7188-0.99219 0.8125-2.5 1.2188-4.5312 1.2188-0.96094 0-1.9219-0.09375-2.8906-0.28125-0.96875-0.17578-1.9336-0.44531-2.8906-0.8125v-3.2812c0.95703 0.51172 1.8828 0.89844 2.7812 1.1562 0.90625 0.26172 1.7812 0.39062 2.625 0.39062s1.4883-0.14062 1.9375-0.42188c0.45703-0.28125 0.6875-0.6875 0.6875-1.2188 0-0.46875-0.15625-0.83203-0.46875-1.0938-0.30469-0.25781-0.91406-0.48828-1.8281-0.6875l-1.5-0.32812c-1.5234-0.32031-2.6328-0.83594-3.3281-1.5469-0.69922-0.71875-1.0469-1.6758-1.0469-2.875 0-1.5 0.48438-2.6562 1.4531-3.4688 0.97656-0.8125 2.3789-1.2188 4.2031-1.2188 0.83203 0 1.6875 0.0625 2.5625 0.1875s1.7812 0.3125 2.7188 0.5625z"/>
  </symbol>
  <symbol id="k" overflow="visible">
   <path d="m12.25-9.4531c0.45703-0.70703 1-1.2422 1.625-1.6094 0.63281-0.36328 1.332-0.54688 2.0938-0.54688 1.3008 0 2.2891 0.40234 2.9688 1.2031 0.6875 0.80469 1.0312 1.9688 1.0312 3.5v6.9062h-3.6562v-5.9062c0.007812-0.09375 0.015625-0.1875 0.015625-0.28125 0.007813-0.09375 0.015625-0.22656 0.015625-0.40625 0-0.80078-0.12109-1.3789-0.35938-1.7344-0.24219-0.36328-0.62109-0.54688-1.1406-0.54688-0.6875 0-1.2188 0.28906-1.5938 0.85938-0.375 0.5625-0.57031 1.3828-0.57812 2.4531v5.5625h-3.6562v-5.9062c0-1.2578-0.10938-2.0664-0.32812-2.4219-0.21094-0.36328-0.58984-0.54688-1.1406-0.54688-0.69922 0-1.2422 0.28906-1.625 0.85938-0.375 0.5625-0.5625 1.375-0.5625 2.4375v5.5781h-3.6406v-11.344h3.6406v1.6719c0.44531-0.64453 0.95703-1.1289 1.5312-1.4531 0.58203-0.32031 1.2227-0.48438 1.9219-0.48438 0.78125 0 1.4688 0.1875 2.0625 0.5625 0.60156 0.375 1.0625 0.90625 1.375 1.5938z"/>
  </symbol>
  <symbol id="j" overflow="visible">
   <path d="m10.594-10.984v2.75c-0.77344-0.32031-1.5234-0.5625-2.25-0.71875-0.71875-0.16406-1.3984-0.25-2.0312-0.25-0.6875 0-1.2031 0.089844-1.5469 0.26562-0.33594 0.16797-0.5 0.42969-0.5 0.78125 0 0.29297 0.125 0.51562 0.375 0.67188 0.25781 0.15625 0.71875 0.27344 1.375 0.34375l0.64062 0.09375c1.8516 0.24219 3.0977 0.63281 3.7344 1.1719 0.64453 0.53125 0.96875 1.375 0.96875 2.5312 0 1.2109-0.44922 2.1211-1.3438 2.7344-0.88672 0.60547-2.2148 0.90625-3.9844 0.90625-0.75 0-1.5273-0.0625-2.3281-0.1875-0.79297-0.11328-1.6094-0.28906-2.4531-0.53125v-2.75c0.71875 0.35547 1.457 0.62109 2.2188 0.79688 0.75781 0.17969 1.5312 0.26562 2.3125 0.26562 0.70703 0 1.2383-0.097656 1.5938-0.29688 0.36328-0.19531 0.54688-0.48828 0.54688-0.875 0-0.32031-0.125-0.5625-0.375-0.71875s-0.74219-0.28125-1.4688-0.375l-0.64062-0.078125c-1.6172-0.20703-2.7461-0.58203-3.3906-1.125-0.64844-0.55078-0.96875-1.3789-0.96875-2.4844 0-1.207 0.41016-2.0977 1.2344-2.6719 0.82031-0.58203 2.082-0.875 3.7812-0.875 0.66406 0 1.3633 0.054687 2.0938 0.15625 0.73828 0.09375 1.5391 0.25 2.4062 0.46875z"/>
  </symbol>
  <symbol id="i" overflow="visible">
   <path d="m13.141-6.9062v6.9062h-3.6406v-5.2656c0-0.98828-0.027344-1.6641-0.078125-2.0312-0.042969-0.375-0.11719-0.64844-0.21875-0.82812-0.14844-0.23828-0.33984-0.42188-0.57812-0.54688-0.24219-0.13281-0.51562-0.20312-0.82812-0.20312-0.76172 0-1.3594 0.29297-1.7969 0.875-0.42969 0.58594-0.64062 1.3906-0.64062 2.4219v5.5781h-3.625v-15.75h3.625v6.0781c0.55078-0.66406 1.1328-1.1562 1.75-1.4688 0.61328-0.3125 1.2891-0.46875 2.0312-0.46875 1.3125 0 2.3047 0.40234 2.9844 1.2031 0.67578 0.80469 1.0156 1.9688 1.0156 3.5z"/>
  </symbol>
  <symbol id="v" overflow="visible">
   <path d="m1.7344-11.344h3.625v11.344h-3.625zm0-4.4062h3.625v2.9531h-3.625z"/>
  </symbol>
  <symbol id="h" overflow="visible">
   <path d="m13.141-6.9062v6.9062h-3.6406v-5.2812c0-0.97656-0.027344-1.6484-0.078125-2.0156-0.042969-0.375-0.11719-0.64844-0.21875-0.82812-0.14844-0.23828-0.33984-0.42188-0.57812-0.54688-0.24219-0.13281-0.51562-0.20312-0.82812-0.20312-0.76172 0-1.3594 0.29297-1.7969 0.875-0.42969 0.58594-0.64062 1.3906-0.64062 2.4219v5.5781h-3.625v-11.344h3.625v1.6719c0.55078-0.66406 1.1328-1.1562 1.75-1.4688 0.61328-0.3125 1.2891-0.46875 2.0312-0.46875 1.3125 0 2.3047 0.40234 2.9844 1.2031 0.67578 0.80469 1.0156 1.9688 1.0156 3.5z"/>
  </symbol>
  <symbol id="u" overflow="visible">
   <path d="m9.4531-1.9219c-0.5 0.65625-1.0547 1.1406-1.6562 1.4531-0.59375 0.3125-1.2891 0.46875-2.0781 0.46875-1.3867 0-2.5312-0.53906-3.4375-1.625-0.89844-1.0938-1.3438-2.4844-1.3438-4.1719 0-1.6953 0.44531-3.0859 1.3438-4.1719 0.90625-1.082 2.0508-1.625 3.4375-1.625 0.78906 0 1.4844 0.15625 2.0781 0.46875 0.60156 0.3125 1.1562 0.80469 1.6562 1.4688v-1.6875h3.6406v10.203c0 1.8203-0.57812 3.2109-1.7344 4.1719-1.1484 0.95703-2.8086 1.4375-4.9844 1.4375-0.71094 0-1.3984-0.054688-2.0625-0.15625-0.65625-0.10547-1.3242-0.27344-2-0.5v-2.8281c0.63281 0.36328 1.2539 0.63281 1.8594 0.8125 0.61328 0.1875 1.2266 0.28125 1.8438 0.28125 1.1875 0 2.0547-0.26172 2.6094-0.78125 0.55078-0.52344 0.82812-1.332 0.82812-2.4375zm-2.3906-7.0625c-0.75 0-1.3359 0.28125-1.75 0.84375-0.41797 0.55469-0.625 1.3359-0.625 2.3438 0 1.043 0.20312 1.8359 0.60938 2.375 0.40625 0.53125 0.99219 0.79688 1.7656 0.79688 0.75781 0 1.3477-0.27344 1.7656-0.82812 0.41406-0.5625 0.625-1.3438 0.625-2.3438 0-1.0078-0.21094-1.7891-0.625-2.3438-0.41797-0.5625-1.0078-0.84375-1.7656-0.84375z"/>
  </symbol>
  <symbol id="c" overflow="visible">
   <path d="m7.1406-9.0156c-0.80469 0-1.418 0.28906-1.8438 0.85938-0.41797 0.57422-0.625 1.4062-0.625 2.5 0 1.0859 0.20703 1.918 0.625 2.5 0.42578 0.57422 1.0391 0.85938 1.8438 0.85938 0.78906 0 1.3945-0.28516 1.8125-0.85938 0.41406-0.58203 0.625-1.4141 0.625-2.5 0-1.0938-0.21094-1.9258-0.625-2.5-0.41797-0.57031-1.0234-0.85938-1.8125-0.85938zm0-2.5938c1.9453 0 3.4688 0.52734 4.5625 1.5781 1.1016 1.0547 1.6562 2.5117 1.6562 4.375 0 1.8672-0.55469 3.3242-1.6562 4.375-1.0938 1.0547-2.6172 1.5781-4.5625 1.5781-1.9609 0-3.4922-0.52344-4.5938-1.5781-1.1055-1.0508-1.6562-2.5078-1.6562-4.375 0-1.8633 0.55078-3.3203 1.6562-4.375 1.1016-1.0508 2.6328-1.5781 4.5938-1.5781z"/>
  </symbol>
  <symbol id="g" overflow="visible">
   <path d="m10.906-10.984v2.9531c-0.49219-0.33203-0.98438-0.57812-1.4844-0.73438-0.5-0.16406-1.0156-0.25-1.5469-0.25-1.0117 0-1.7969 0.29688-2.3594 0.89062-0.5625 0.58594-0.84375 1.4062-0.84375 2.4688s0.28125 1.8906 0.84375 2.4844c0.5625 0.58594 1.3477 0.875 2.3594 0.875 0.57031 0 1.1094-0.082031 1.6094-0.25 0.50781-0.16406 0.98438-0.41406 1.4219-0.75v2.9688c-0.57422 0.21094-1.1523 0.36328-1.7344 0.46875-0.58594 0.10156-1.168 0.15625-1.75 0.15625-2.043 0-3.6406-0.52344-4.7969-1.5781-1.1562-1.0508-1.7344-2.5078-1.7344-4.375 0-1.875 0.57812-3.332 1.7344-4.375 1.1562-1.0508 2.7539-1.5781 4.7969-1.5781 0.59375 0 1.1758 0.054687 1.75 0.15625 0.58203 0.10547 1.1602 0.26172 1.7344 0.46875z"/>
  </symbol>
  <symbol id="t" overflow="visible">
   <path d="m1.7344-15.75h3.625v8.5781l4.1719-4.1719h4.2188l-5.5469 5.2031 5.9844 6.1406h-4.3906l-4.4375-4.7344v4.7344h-3.625z"/>
  </symbol>
  <symbol id="s" overflow="visible">
   <path d="m9.2031-15.75v2.375h-2c-0.52344 0-0.88281 0.09375-1.0781 0.28125-0.19922 0.1875-0.29688 0.51172-0.29688 0.96875v0.78125h3.0938v2.5938h-3.0938v8.75h-3.625v-8.75h-1.8125v-2.5938h1.8125v-0.78125c0-1.2383 0.34375-2.1484 1.0312-2.7344 0.6875-0.59375 1.75-0.89062 3.1875-0.89062z"/>
  </symbol>
  <symbol id="r" overflow="visible">
   <path d="m1.9062-15.109h4.3438l5.5 10.359v-10.359h3.7031v15.109h-4.3594l-5.5-10.375v10.375h-3.6875z"/>
  </symbol>
  <symbol id="q" overflow="visible">
   <path d="m1.625-4.4219v-6.9219h3.6406v1.1406c0 0.61719-0.007813 1.3867-0.015625 2.3125v1.8594c0 0.90625 0.019531 1.5625 0.0625 1.9688 0.050781 0.39844 0.13281 0.6875 0.25 0.875 0.14453 0.24219 0.33594 0.42188 0.57812 0.54688 0.23828 0.125 0.51562 0.1875 0.82812 0.1875 0.75 0 1.3359-0.28516 1.7656-0.85938 0.4375-0.58203 0.65625-1.3906 0.65625-2.4219v-5.6094h3.625v11.344h-3.625v-1.6406c-0.54297 0.66797-1.1211 1.1562-1.7344 1.4688-0.60547 0.3125-1.2773 0.46875-2.0156 0.46875-1.3125 0-2.3125-0.39844-3-1.2031-0.67969-0.80078-1.0156-1.9727-1.0156-3.5156z"/>
  </symbol>
  <symbol id="p" overflow="visible">
   <path d="m1.9062-15.109h6.4688c1.9258 0 3.3984 0.42969 4.4219 1.2812 1.0312 0.85547 1.5469 2.0703 1.5469 3.6406 0 1.5859-0.51562 2.8047-1.5469 3.6562-1.0234 0.85547-2.4961 1.2812-4.4219 1.2812h-2.5781v5.25h-3.8906zm3.8906 2.8125v4.2344h2.1562c0.75781 0 1.3438-0.17969 1.75-0.54688 0.41406-0.375 0.625-0.89844 0.625-1.5781 0-0.67578-0.21094-1.1953-0.625-1.5625-0.40625-0.36328-0.99219-0.54688-1.75-0.54688z"/>
  </symbol>
  <symbol id="o" overflow="visible">
   <path d="m1.7344-11.344h3.625v11.141c0 1.5195-0.36719 2.6758-1.0938 3.4688-0.73047 0.80078-1.7812 1.2031-3.1562 1.2031h-1.7969v-2.375h0.625c0.6875 0 1.1562-0.15625 1.4062-0.46875 0.25781-0.30469 0.39062-0.91406 0.39062-1.8281zm0-4.4062h3.625v2.9531h-3.625z"/>
  </symbol>
 </defs>
 <g>
  <path d="m74.355 465.21h-0.54688c-1.1445 0-2.0742 0.92578-2.0742 2.0742 0 1.1445 0.92578 2.0742 2.0742 2.0742h0.54688c1.1445 0 2.0742-0.92578 2.0742-2.0742 0-1.1445-0.92578-2.0742-2.0742-2.0742z"/>
  <path d="m604.77 465.21h-1.1367c-1.1445 0-2.0742 0.92578-2.0742 2.0742 0 1.1445 0.92578 2.0742 2.0742 2.0742h1.1367c1.1445 0 2.0742-0.92578 2.0742-2.0742 0-1.1445-0.92969-2.0742-2.0742-2.0742z"/>
  <path d="m150.68 286.31c-0.78906-0.78906-2.1172-0.78906-2.9023 0l-23.27 23.273c-0.78906 0.78906-0.78906 2.1172 0 2.9023 0.76562 0.76562 2.0547 0.89062 2.9453 0l23.23-23.23c0.82422-0.83203 0.82422-2.1172-0.003906-2.9453z"/>
  <path d="m150.1 299.09-12.816 12.816c-0.82812 0.82812-0.82812 2.1172 0 2.9453 0.41406 0.41406 0.91406 0.58203 1.4531 0.58203 0.53906 0 1.0781-0.16797 1.4922-0.58203l12.816-12.859c0.82812-0.78906 0.82812-2.1172 0-2.9023-0.82812-0.82813-2.1133-0.82813-2.9453 0z"/>
  <path d="m439.8 442.26h2.3828c1.1445 0 2.0742-0.92578 2.0742-2.0742 0-1.1445-0.92578-2.0742-2.0742-2.0742h-2.3828c-1.1445 0-2.0742 0.92578-2.0742 2.0742s0.92578 2.0742 2.0742 2.0742z"/>
  <path d="m205.85 451.24h-2.3633c-1.1602 0-2.0742 0.91406-2.0742 2.0742 0 1.1211 0.91406 2.0742 2.0742 2.0742h2.3633c1.1602 0 2.0742-0.95312 2.0742-2.0742 0-1.1641-0.91016-2.0742-2.0742-2.0742z"/>
  <path d="m614.02 152.15h-52.473l3.0547-19.312c1.0117-7.0352 0.83203-13.484-0.55859-19.723-1.9531-8.7266-5.7891-15.238-11.125-18.855-8.1758-5.3555-15.949-3.5977-19.84-2.082-2.457 0.94141-3.9609 3.457-3.7344 6.3164l2.4141 21.98c0.39063 3.3398-0.21484 6.6016-1.7578 9.4766l-20.055 38.586c-1.7031-3.4375-5.2227-5.7539-9.2852-5.7539h-7.2734c-3.6055-24.223-24.469-42.891-49.68-42.891-3.0391 0-6.0039 0.31641-8.8984 0.83594-31.145-5.6992-59.375 18.363-59.375 49.465v15.871l-80.082-0.003906c-1.0977 0-2.0039 0.85938-2.0703 1.9531l-3.1836 54.863h-23.266v-12.195c0-22.316-18.168-40.484-40.484-40.484-2.4492 0-4.8125 0.20703-7.1367 0.66406-2.3242-0.45703-4.7305-0.66406-7.1758-0.66406-22.359 0-40.484 18.168-40.484 40.484v12.195h-63.387c-1.0781 0-1.9922 0.87109-2.0742 1.9492l-12.777 220.38h-12.734c-1.1445 0-2.0742 0.92578-2.0742 2.0742 0 1.1445 0.92578 2.0742 2.0742 2.0742h514.76c1.1445 0 2.0742-0.92578 2.0742-2.0742 0-1.1445-0.92578-2.0742-2.0742-2.0742h-9.4336l-24.676-207.8h31.16c7.8281 0 14.195-6.3867 14.195-14.238v-0.96875c0-3.9648-1.5703-7.5312-4.1406-10.098 7.6289-0.26172 13.75-6.5273 13.75-14.188v-0.96484c0-4.0586-1.707-7.7305-4.4414-10.324 6.6367-1.207 11.684-7.0312 11.684-14.012v-0.96484c0-4.3125-1.9297-8.1875-4.9688-10.805 5.6836-1.8633 9.8008-7.2031 9.8008-13.484v-0.96484c0-7.8555-6.3906-14.242-14.246-14.242zm-107.14 20.996v73.879c0 3.4414-2.7812 6.2227-6.2227 6.2227h-34.18c-3.4414 0-6.2227-2.7773-6.2227-6.2227v-73.879c0-3.4414 2.7773-6.2227 6.2227-6.2227h34.18c3.4453 0 6.2227 2.7812 6.2227 6.2227zm-50.773 0v12.914h-58.559v-15.871c0-22.371 16.004-41.062 37.164-45.258 18.762 3.7188 33.406 18.863 36.496 37.848h-4.7266c-5.7266-0.003906-10.375 4.6445-10.375 10.367zm33.07-10.371h-13.762c-2.582-17.352-14.023-31.816-29.586-38.641 21.957 1.0078 39.891 17.402 43.348 38.641zm-109.6 7.4141c0-24.699 19.52-44.871 43.941-46.039-17.707 7.793-30.117 25.484-30.117 46.039v15.871h-13.82zm-82.273 20.02h78.125v15.93c0 0.09375 0.042968 0.17578 0.054687 0.26562-3.7266 0.91406-6.5117 4.2617-6.5117 8.2656 0 4.707 3.8281 8.5352 8.5352 8.5352s8.5352-3.8281 8.5352-8.5352c0-4.0078-2.7852-7.3516-6.5156-8.2656 0.011719-0.089844 0.054688-0.17188 0.054688-0.26562v-15.93h76.527l-0.003906 56.816c0 5.7227 4.6445 10.371 10.371 10.371h34.18c3.3984 0 6.3828-1.6172 8.293-4.1445 0.17188 0.09375 0.35156 0.19922 0.52344 0.28906 4.8203 2.5625 10.086 3.8633 15.652 3.8633h19.5l-10.969 180.71h-83.32c-1.1445 0-2.0742 0.92578-2.0742 2.0742 0 1.1445 0.92578 2.0742 2.0742 2.0742h83.074l-1.3906 22.934h-192.06v-0.015624c-0.32422-2.7305 2.2305 18.766-26.215-220.48-0.90625-1.7539-1.582-1.8242-2.0312-1.8242h-17.465zm38.465 274.97h-35.344c0.89844-14.816-3.7891 62.434 11.945-196.95zm-73.09-234.5v12.195h-10.164v-12.195c0-15.762-9.043-29.453-22.234-36.09 18.211 1.9531 32.398 17.383 32.398 36.09zm-43.473-35.633c16.633 3.3594 29.16 18.043 29.16 35.633v12.195h-58.363v-12.195c0-17.586 12.566-32.312 29.203-35.633zm-43.516 35.633c0-18.707 14.227-34.18 32.398-36.09-13.191 6.6367-22.234 20.324-22.234 36.09v12.195h-10.164zm-65.582 16.344h61.434v10.289c-3.9805 0.91406-6.9688 4.5234-6.9688 8.793 0 4.9766 4.0664 9 9.043 9 4.9766 0 9-4.0234 9-9 0-4.2734-2.9453-7.8828-6.9258-8.793v-10.289h72.676v10.66c-3.7734 0.91406-6.5938 4.3555-6.5938 8.4219 0 4.7695 3.8594 8.668 8.6289 8.668 4.8125 0 8.668-3.8984 8.668-8.668 0-4.0234-2.7812-7.4688-6.5547-8.4219v-10.66h56.996l-12.402 204.21h-83.09c-1.1602 0-2.0742 0.91406-2.0742 2.0742 0 1.1211 0.91406 2.0742 2.0742 2.0742h82.84l-0.58203 9.7891h-198.82zm471.61 218.17h-45.547l12.609-207.79h8.2617zm42.391-297.84c0 5.5391-4.5273 10.047-10.094 10.047h-25.688c-1.1445 0-2.0742 0.92578-2.0742 2.0742 0 1.1445 0.92578 2.0742 2.0742 2.0742h20.859c5.5664 0 10.094 4.5273 10.094 10.094v0.96484c0 5.5664-4.5273 10.094-10.094 10.094h-28.102c-1.1445 0-2.0742 0.92578-2.0742 2.0742 0 1.1445 0.92578 2.0742 2.0742 2.0742h20.859c5.5664 0 10.094 4.5273 10.094 10.094v0.96484c0 5.5391-4.5273 10.047-10.094 10.047h-25.688c-1.1445 0-2.0742 0.92578-2.0742 2.0742 0 1.1445 0.92578 2.0742 2.0742 2.0742h16.324c5.5195 0.11719 9.8477 4.5508 9.8477 10.09v0.96875c0 5.5664-4.5078 10.09-10.047 10.09h-67.258c-4.8789 0-9.4922-1.1367-13.723-3.3906-0.21875-0.11328-0.44531-0.23828-0.66406-0.35547 0.16406-0.78516 0.28906-1.6133 0.28906-2.4844l-0.003906-71.594 22.633-43.547c1.9375-3.5977 2.7031-7.707 2.2148-11.883l-2.4102-21.906c-0.078125-0.96094 0.35156-1.7656 1.1016-2.0547 3.1602-1.2305 9.4492-2.6562 16.047 1.6641 5.582 3.7852 8.1797 10.957 9.375 16.312 1.2812 5.7305 1.4453 11.695 0.50781 18.195l-3.4258 21.68c-0.09375 0.59766 0.078125 1.2109 0.47266 1.6719 0.39453 0.45703 0.96875 0.72656 1.5742 0.72656h54.898c5.5664 0 10.094 4.5273 10.094 10.094z"/>
  <path d="m488.3 245.66c5.9336 0 10.785-4.8516 10.785-10.785 0-5.9727-4.8516-10.828-10.785-10.828-5.9727 0-10.828 4.8516-10.828 10.828 0 5.9297 4.8555 10.785 10.828 10.785zm0-17.465c3.6523 0 6.6367 2.9883 6.6367 6.6797 0 3.6484-2.9883 6.6367-6.6367 6.6367-3.6914 0-6.6797-2.9883-6.6797-6.6367 0-3.6914 2.9883-6.6797 6.6797-6.6797z"/>
  <use x="70" y="622.222656" xlink:href="#w"/>
  <use x="85.222656" y="622.222656" xlink:href="#d"/>
  <use x="95.449219" y="622.222656" xlink:href="#b"/>
  <use x="109.515625" y="622.222656" xlink:href="#f"/>
  <use x="123.511719" y="622.222656" xlink:href="#a"/>
  <use x="133.425781" y="622.222656" xlink:href="#b"/>
  <use x="147.496094" y="622.222656" xlink:href="#n"/>
  <use x="169.5625" y="622.222656" xlink:href="#m"/>
  <use x="184.410156" y="622.222656" xlink:href="#l"/>
  <use x="205.148438" y="622.222656" xlink:href="#e"/>
  <use x="220.085938" y="622.222656" xlink:href="#k"/>
  <use x="241.699219" y="622.222656" xlink:href="#f"/>
  <use x="255.695312" y="622.222656" xlink:href="#j"/>
  <use x="268.039062" y="622.222656" xlink:href="#i"/>
  <use x="282.804688" y="622.222656" xlink:href="#v"/>
  <use x="289.914062" y="622.222656" xlink:href="#h"/>
  <use x="304.679688" y="622.222656" xlink:href="#u"/>
  <use x="326.746094" y="622.222656" xlink:href="#e"/>
  <use x="341.683594" y="622.222656" xlink:href="#a"/>
  <use x="351.601562" y="622.222656" xlink:href="#c"/>
  <use x="365.847656" y="622.222656" xlink:href="#g"/>
  <use x="378.144531" y="622.222656" xlink:href="#t"/>
  <use x="391.9375" y="622.222656" xlink:href="#j"/>
  <use x="70" y="642.964844" xlink:href="#s"/>
  <use x="79.023438" y="642.964844" xlink:href="#d"/>
  <use x="89.253906" y="642.964844" xlink:href="#c"/>
  <use x="103.5" y="642.964844" xlink:href="#k"/>
  <use x="132.332031" y="642.964844" xlink:href="#a"/>
  <use x="142.25" y="642.964844" xlink:href="#i"/>
  <use x="157.015625" y="642.964844" xlink:href="#b"/>
  <use x="178.300781" y="642.964844" xlink:href="#r"/>
  <use x="195.660156" y="642.964844" xlink:href="#c"/>
  <use x="209.910156" y="642.964844" xlink:href="#q"/>
  <use x="224.675781" y="642.964844" xlink:href="#h"/>
  <use x="246.660156" y="642.964844" xlink:href="#p"/>
  <use x="261.863281" y="642.964844" xlink:href="#d"/>
  <use x="272.089844" y="642.964844" xlink:href="#c"/>
  <use x="286.339844" y="642.964844" xlink:href="#o"/>
  <use x="293.449219" y="642.964844" xlink:href="#b"/>
  <use x="307.515625" y="642.964844" xlink:href="#g"/>
  <use x="319.808594" y="642.964844" xlink:href="#a"/>
 </g>
</svg>
